<?xml version="1.0" encoding="UTF-8"?>
<svg id="Capa_2" data-name="Capa 2" xmlns="http://www.w3.org/2000/svg" viewBox="0 0 291.2 291.2">
  <defs>
    <style>
      .cls-1 {
        fill: #eae2b7;
      }
    </style>
  </defs>
  <g id="Capa_1-2" data-name="Capa 1">
    <path class="cls-1" d="M8.29,194.13c1.96,5.56,4.25,10.96,6.85,16.18,21.6,43.47,64.3,74.62,114.71,80.04,5.17,.56,10.43,.85,15.75,.85s10.58-.29,15.75-.85c50.4-5.42,93.1-36.57,114.71-80.04,2.6-5.22,4.89-10.62,6.85-16.18,5.37-15.18,8.29-31.52,8.29-48.53,0-32.78-10.83-63.03-29.12-87.37L291.2,0h-16.18l-23.08,46.15C225.38,17.75,187.56,0,145.6,0S65.82,17.75,39.25,46.15L16.18,0H0L29.12,58.23C10.83,82.57,0,112.82,0,145.6c0,17.02,2.92,33.35,8.29,48.53Zm25.21,16.18H105.16l32.22,64.45c-44.44-2.78-82.8-28-103.89-64.45Zm120.32,64.45l32.23-64.45h71.66c-21.09,36.46-59.45,61.67-103.89,64.45ZM253.87,74.67c13.38,20.37,21.16,44.74,21.16,70.93,0,17.17-3.34,33.55-9.41,48.53h-71.48l59.73-119.47ZM145.6,16.18c39.48,0,74.83,17.67,98.56,45.54l-66.21,132.41-8.09,16.18-24.27,48.53-24.26-48.53-8.09-16.18L47.04,61.72c23.74-27.87,59.09-45.54,98.56-45.54ZM37.33,74.67l59.74,119.47H25.59c-6.07-14.99-9.41-31.37-9.41-48.53,0-26.19,7.78-50.56,21.15-70.93Z"/>
  </g>
</svg>